<svg id="Capa_1" enable-background="new 0 0 512 512" height="512" viewBox="0 0 512 512" width="512" xmlns="http://www.w3.org/2000/svg"><g><g><g><path d="m373.667 215.56h.167c14.372 0 26.018-11.655 26.018-26.018 0-14.372-11.646-26.028-26.018-26.028-.187 0-.374 0-.561.01h-238.248c-.187-.01-.374-.01-.561-.01-14.372 0-26.018 11.655-26.018 26.028 0 14.363 11.646 26.018 26.018 26.018h.167" fill="#f1b986"/><path d="m367.682 95.572c-75.689-7.338-151.377-7.338-227.066 0-5.873 47.06-7.603 94.121-5.19 141.181 1.757 34.258 29.17 61.525 63.434 63.143 36.859 1.74 73.718 1.74 110.577 0 34.264-1.618 61.677-28.885 63.434-63.143 2.415-47.061.685-94.121-5.189-141.181z" fill="#f1d0a5"/><path d="m140.621 95.564c37.838-3.67 75.687-5.499 113.536-5.499-19.162 0-38.323 1.852-57.485 5.555-2.981 47.514-3.85 95.029-2.631 142.532.802 31.266 12.229 56.762 27.224 62.577-7.464-.203-14.939-.486-22.402-.836-34.258-1.615-61.674-28.884-63.435-63.142-2.406-47.061-.679-94.124 5.193-141.187z" fill="#f1b986"/><path d="m317.191 134.706c-43.504 16.806-105.301 9.395-136.445-21.748 0 0-7.396 50.566-45.712 50.566l-16.709 5.619c-44.626-175.171 50.559-128.366 50.559-128.366 8.986-17.415 22.076-24.625 35.752-26.364 1.204-.149 2.408-.26 3.62-.334.097 0 .193-.007.29-.015 9.633-.513 19.385 1.442 28.052 4.229 3.018.974 5.909 2.044 8.615 3.152 10.889 4.452 18.82 9.455 20.485 10.525.216.149.327.223.327.223 9.795-12.964 19.138-24.693 29.41-24.693 4.214 0 7.128 1.613 9.083 4.192 7.411 9.715 1.323 33.076.832 34.912l-.022.082c.007-.015.015-.045.03-.082l.052-.134c1.316-3.315 16.033-38.97 42.427-38.97 1.665 0 3.159.156 4.489.453 19.675 4.348 4.274 38.762 2.579 42.404l-.045.104c-.045.089-.074.156-.089.186.84-1.07 33.79-42.902 48.432-23.711.007.015.007.015.015.022 14.77 19.468-42.545 90.949-86.027 107.748z" fill="#f4dd45"/><g fill="#ecc32e"><path d="m403.204 26.937h-.007c-7.403-7.396-33.046 27.516-48.447 23.733l.112-.208c-.045.089-.074.156-.089.186.838-1.071 33.788-42.903 48.431-23.711z"/><path d="m352.326 7.953c-11.122-2.526-21.431 18.643-27.255 33.671-2.817 7.267-11.542 10.184-18.166 6.077l-1.591-.986.015-.03.022-.082h.007l.052-.134c1.316-3.315 16.033-38.97 42.427-38.97 1.664.001 3.158.157 4.489.454z"/><path d="m204.633 14.413c-31.827 5.612-43.854 78.58-23.889 98.544 0 0-7.396 50.566-45.712 50.566l-16.709 5.619c-44.627-175.17 50.558-128.365 50.558-128.365 8.987-17.415 22.076-24.625 35.752-26.364z"/><path d="m304.518 11.692c-11.186-11.186-18.642 46.18-43.824 55.367s-27.539-2.557-27.539-2.557v-.007c12.398-4.586 22.863-19.08 32.861-32.311.007.007.007.007.007.007.305-.409.609-.81.914-1.212.379-.513.773-1.026 1.16-1.531 9.053-11.824 17.794-21.948 27.338-21.948 4.214 0 7.128 1.613 9.083 4.192z"/><path d="m208.565 14.071c-.104 0-.208 0-.312.008.097 0 .193-.008.29-.015z"/></g></g><path d="m444.37 280.45v169.04c0 10.82-7.55 20.18-18.12 22.47l-150.15 32.54h-19.38v-216.08h19.38l140.41-30.43c14.32-3.11 27.86 7.81 27.86 22.46z" fill="#da4a54"/><path d="m256.72 288.42v216.08h-20.82l-150.15-32.54c-10.57-2.29-18.12-11.65-18.12-22.47v-169.04c0-14.65 13.54-25.57 27.86-22.46l140.41 30.43z" fill="#c32430"/><path d="m235.902 504.5v-216.081h40.196v216.081" fill="#dd636e"/><g><g><path d="m63.504 362.126h-7.864c-11.612 0-21.026-9.414-21.026-21.026v-18.874c0-11.612 9.414-21.026 21.026-21.026h7.864c11.612 0 21.026 9.414 21.026 21.026v18.874c0 11.613-9.413 21.026-21.026 21.026z" fill="#f1d0a5"/><path d="m67.545 361.73c-1.3.27-2.66.4-4.04.4h-7.87c-11.61 0-21.02-9.42-21.02-21.03v-18.87c0-11.62 9.41-21.03 21.02-21.03h7.87c1.38 0 2.74.13 4.04.4-9.67 1.88-16.97 10.4-16.97 20.63v18.87c0 10.23 7.3 18.75 16.97 20.63z" fill="#f1b986"/></g><g><path d="m456.359 362.126h-7.864c-11.612 0-21.026-9.414-21.026-21.026v-18.874c0-11.612 9.414-21.026 21.026-21.026h7.864c11.612 0 21.026 9.414 21.026 21.026v18.874c0 11.613-9.413 21.026-21.026 21.026z" fill="#f1d0a5"/><path d="m460.4 361.73c-1.3.27-2.66.4-4.04.4h-7.87c-11.61 0-21.02-9.42-21.02-21.03v-18.87c0-11.62 9.41-21.03 21.02-21.03h7.87c1.38 0 2.74.13 4.04.4-9.67 1.88-16.97 10.4-16.97 20.63v18.87c0 10.23 7.3 18.75 16.97 20.63z" fill="#f1b986"/></g></g></g><g><path d="m285.269 242.415c1.776-3.742.183-8.215-3.56-9.991s-8.215-.182-9.991 3.56c-3.204 6.75-10.1 11.112-17.569 11.112s-14.365-4.362-17.568-11.112c-1.776-3.742-6.249-5.336-9.991-3.56s-5.336 6.249-3.561 9.991c5.674 11.956 17.889 19.681 31.12 19.681s25.446-7.726 31.12-19.681z"/><ellipse cx="198.749" cy="195.403" rx="10.833" ry="16.125"/><ellipse cx="309.55" cy="195.403" rx="10.833" ry="16.125"/><path d="m417.18 318.491c-.877-4.048-4.867-6.618-8.918-5.741l-83.05 18c-4.048.877-6.618 4.87-5.741 8.918.761 3.513 3.869 5.913 7.322 5.913.526 0 1.061-.056 1.596-.172l83.05-18c4.048-.877 6.618-4.869 5.741-8.918z"/><path d="m408.261 340.62-83.05 18c-4.048.877-6.618 4.87-5.741 8.918.761 3.513 3.869 5.913 7.322 5.913.526 0 1.061-.056 1.596-.172l83.05-18c4.048-.877 6.618-4.87 5.741-8.918-.876-4.048-4.866-6.617-8.918-5.741z"/><path d="m456.359 293.701h-4.489v-13.251c0-9.264-4.139-17.913-11.355-23.73-7.214-5.816-16.542-8.025-25.593-6.059l-39.094 8.472c2.604-7.028 4.151-14.447 4.542-21.999.253-4.942.45-9.893.612-14.848 15.058-3.285 26.371-16.714 26.371-32.743 0-16.216-11.569-29.777-26.884-32.866-.904-18.788-2.461-37.556-4.659-56.221 17.549-18.725 31.344-39.584 35.675-54.923 2.748-9.732 1.966-17.519-2.325-23.143-3.96-5.19-9.358-7.95-15.612-7.981-7.16-.026-14.983 3.408-23.894 10.491.337-6.427-.79-11.734-3.381-15.855-2.593-4.127-7.898-9.045-18.442-9.045-14.022 0-25.039 7.87-33.088 16.963-.787-3.628-2.126-7.014-4.247-9.802-3.562-4.684-8.772-7.161-15.066-7.161-12.155 0-21.743 10.081-31.284 22.303-3.998-2.255-9.542-5.12-16.106-7.809-2.977-1.213-6.045-2.335-9.149-3.346-11.021-3.534-21.362-5.074-30.736-4.578-.067.003-.16.01-.247.018-.025.001-.05.002-.076.004-1.386.079-2.734.202-4.138.378-16.16 2.055-28.921 10.243-38.019 24.37-16.275-5.701-42.537-7.755-56.848 15.442-2.175 3.525-1.081 8.146 2.445 10.321 1.228.757 2.587 1.118 3.931 1.118 2.516 0 4.973-1.265 6.39-3.563 13.376-21.681 42.75-7.743 43.977-7.148 3.667 1.804 8.102.341 9.975-3.29 6.894-13.358 16.721-20.676 30.025-22.368 1.023-.128 2.017-.219 3.036-.279.155-.006.314-.017.475-.03 7.517-.379 16.003.931 25.197 3.879 2.731.889 5.457 1.886 8.089 2.959 4.936 2.022 9.257 4.177 12.597 5.989-7.869 10.294-15.98 19.987-24.42 23.104-3.886 1.435-5.873 5.748-4.438 9.634 1.436 3.886 5.749 5.872 9.634 4.438 13.853-5.116 24.487-19.219 34.772-32.857 8.373-11.105 17.863-23.689 24.918-23.689 2.012 0 2.667.639 3.124 1.238 3.695 4.85 1.906 19.86-.464 28.47-1.072 3.864 1.085 7.887 4.896 9.133 3.813 1.248 7.928-.725 9.346-4.475.13-.344 13.609-34.366 35.499-34.366 4.467 0 5.427 1.524 5.742 2.024 3.477 5.519-1.276 21.401-5.58 30.392-1.662 3.454-.451 7.605 2.807 9.625 3.257 2.02 7.515 1.258 9.869-1.766.053-.068 5.341-6.831 12.489-13.555 11.792-11.095 18.098-12.312 20.287-12.312h.029c1.31.007 2.451.363 3.76 2.079 1.202 1.576 1.133 5.302-.185 9.969-7.362 26.074-49.533 73.488-82.572 86.253-43.105 16.655-100.719 7.656-128.433-20.058-2.006-2.006-4.971-2.708-7.663-1.816-2.692.893-4.651 3.227-5.061 6.034-.017.114-1.733 11.507-7.708 22.883-7.412 14.115-17.704 21.272-30.589 21.272-.01 0-.019.001-.028.001-.178-.004-.355-.011-.533-.011-3.91 0-7.663.68-11.156 1.917-7.697-32.53-10.691-58.818-8.871-78.2.387-4.124-2.642-7.781-6.766-8.168-4.123-.386-7.781 2.642-8.168 6.766-2.071 22.06 1.467 51.778 10.487 88.34-5.604 5.995-9.044 14.038-9.044 22.874 0 16.032 11.317 29.464 26.38 32.745.163 4.96.36 9.912.614 14.844.368 7.232 1.802 14.357 4.213 21.13l-35.071-7.601c-9.052-1.966-18.382.242-25.598 6.059s-11.354 14.466-11.354 23.73v13.251h-4.489c-15.729 0-28.526 12.797-28.526 28.526v18.873c0 15.729 12.797 28.526 28.526 28.526h4.489v79.864c0 14.25 10.107 26.783 24.032 29.8l150.15 32.54c.009.002.018.002.026.004.207.044.419.076.632.102.048.006.095.017.143.022.248.026.5.039.755.04.011 0 .022.002.033.002h40.2c.011 0 .022-.002.033-.002.255-.001.507-.014.755-.04.048-.005.095-.016.143-.022.213-.026.424-.058.632-.102.009-.002.018-.002.026-.004l150.149-32.54c13.925-3.017 24.032-15.55 24.032-29.8v-10.228c0-4.142-3.358-7.5-7.5-7.5s-7.5 3.358-7.5 7.5v10.228c0 7.24-5.134 13.607-12.208 15.14l-141.063 30.571v-200.732l134.504-29.15c4.596-.998 9.334.124 13 3.079s5.769 7.348 5.769 12.052v15.737c-9.949 4.46-16.9 14.45-16.9 26.039v18.874c0 11.59 6.951 21.58 16.9 26.039v42.123c0 4.142 3.358 7.5 7.5 7.5s7.5-3.358 7.5-7.5v-39.636h4.489c15.729 0 28.526-12.797 28.526-28.526v-18.874c-.001-15.729-12.798-28.525-28.527-28.525zm-64.006-104.159c0 7.538-4.534 14.027-11.012 16.914.147-11.308.058-22.635-.268-33.965 6.623 2.825 11.28 9.403 11.28 17.051zm-276.407 0c0-7.64 4.648-14.213 11.262-17.043-.323 11.303-.398 22.644-.248 33.957-6.48-2.886-11.014-9.375-11.014-16.914zm26.974 46.821c-1.125-21.79-1.331-43.918-.635-65.882 15.325-2.324 27.885-12.143 36.609-28.755 2.792-5.316 4.804-10.613 6.224-15.13 15.282 11.391 35.453 19.302 58.117 22.636 26.694 3.927 53.915 1.253 76.649-7.53 13.928-5.381 28.716-15.607 42.313-27.875 4.193 40.738 5.273 81.886 3.193 122.536-.489 9.448-3.239 18.635-7.971 26.76l-82.123 17.798h-38.593l-86.346-18.713c-4.409-7.888-6.974-16.756-7.437-25.845zm100.482 59.557h25.196v201.08h-25.196zm-201.287 45.18v-18.874c0-7.458 6.068-13.526 13.526-13.526h7.864c7.458 0 13.526 6.068 13.526 13.526v18.874c0 7.458-6.068 13.526-13.526 13.526h-7.864c-7.458 0-13.526-6.067-13.526-13.526zm33.015 108.39v-82.35c9.949-4.46 16.9-14.45 16.9-26.039v-18.874c0-11.59-6.951-21.58-16.9-26.039v-15.738c0-4.704 2.103-9.097 5.769-12.052s8.404-4.077 13.003-3.078l134.5 29.149v200.732l-141.064-30.571c-7.074-1.533-12.208-7.9-12.208-15.14zm394.755-108.39c0 7.458-6.068 13.526-13.526 13.526h-7.864c-7.458 0-13.526-6.068-13.526-13.526v-18.874c0-7.458 6.068-13.526 13.526-13.526h7.864c7.458 0 13.526 6.068 13.526 13.526z"/></g></g></svg>